<svg width="570" height="299" viewBox="0 0 570 299" fill="none" xmlns="http://www.w3.org/2000/svg">
<g filter="url(#filter0_d)">
<path d="M20.712 164.192C17.64 164.192 14.888 163.52 12.456 162.176C10.056 160.832 8.152 158.928 6.744 156.464C5.336 154 4.632 151.072 4.632 147.68C4.632 145.152 5.048 142.864 5.88 140.816C6.712 138.736 7.864 136.96 9.336 135.488C10.808 133.984 12.504 132.832 14.424 132.032C16.376 131.232 18.44 130.832 20.616 130.832C22.152 130.832 23.48 130.944 24.6 131.168C25.752 131.36 26.696 131.536 27.432 131.696L28.344 140.432H25.032L23.112 135.104C22.856 135.072 22.584 135.04 22.296 135.008C22.008 134.976 21.544 134.96 20.904 134.96C18.664 134.96 16.696 135.504 15 136.592C13.304 137.68 11.976 139.168 11.016 141.056C10.056 142.912 9.544 144.992 9.48 147.296C9.512 149.696 9.976 151.872 10.872 153.824C11.8 155.744 13.096 157.264 14.76 158.384C16.456 159.504 18.472 160.064 20.808 160.064C21.992 160.064 23.192 159.872 24.408 159.488C25.624 159.104 26.648 158.56 27.48 157.856L29.112 161.408C28.248 162.208 27.032 162.88 25.464 163.424C23.896 163.936 22.312 164.192 20.712 164.192ZM32.1019 164L31.7179 161.408L34.4539 160.784V132.56H31.9099L31.4299 129.776L37.2859 128.864L38.8219 130.496V142.496C39.5259 141.984 40.3739 141.568 41.3659 141.248C42.3899 140.896 43.4299 140.72 44.4859 140.72C46.5979 140.72 48.3099 141.28 49.6219 142.4C50.9339 143.488 51.5899 145.152 51.5899 147.392V160.784L54.3739 161.408V164H44.6779L44.5819 161.408L47.2699 160.832V148.208C47.2699 145.68 46.0699 144.416 43.6699 144.416C42.7099 144.416 41.7819 144.624 40.8859 145.04C39.9899 145.424 39.3019 145.856 38.8219 146.336V160.832L41.5099 161.408V164H32.1019ZM57.6131 164L57.0371 161.408L59.9171 160.736V144.416L57.3731 144.512L56.9411 141.728L62.5571 140.72L64.0451 142.88C64.7171 142.176 65.4851 141.632 66.3491 141.248C67.2451 140.864 68.0931 140.672 68.8931 140.672C70.3011 140.672 71.5171 141.024 72.5411 141.728C73.5651 142.4 74.3171 143.264 74.7971 144.32L70.0931 146.72L68.5571 144.416C68.0771 144.416 67.4851 144.592 66.7811 144.944C66.1091 145.264 65.5171 145.808 65.0051 146.576C64.4931 147.312 64.2371 148.32 64.2371 149.6V160.112L70.5251 161.408L70.5731 164H57.6131ZM77.1131 164L76.6331 161.456L79.4171 160.784V144.464L76.8731 144.56L76.3931 141.728L82.2971 140.672L83.7371 142.256V160.784L86.5211 161.408V164H77.1131ZM80.9531 134.96C80.1531 134.96 79.4491 134.672 78.8411 134.096C78.2651 133.488 77.9771 132.784 77.9771 131.984C77.9771 131.152 78.2651 130.448 78.8411 129.872C79.4491 129.296 80.1531 129.008 80.9531 129.008C81.7851 129.008 82.4891 129.296 83.0651 129.872C83.6411 130.448 83.9291 131.152 83.9291 131.984C83.9291 132.784 83.6411 133.488 83.0651 134.096C82.4891 134.672 81.7851 134.96 80.9531 134.96ZM97.3009 164.192C95.8289 164.192 94.5329 163.936 93.4129 163.424C92.2929 162.88 91.3489 162.224 90.5809 161.456C89.8449 160.688 89.3169 159.92 88.9969 159.152L93.8929 157.28L95.0449 160.112C95.2369 160.176 95.5409 160.272 95.9569 160.4C96.3729 160.496 96.9169 160.544 97.5889 160.544C98.0369 160.544 98.5169 160.448 99.0289 160.256C99.5409 160.064 99.9729 159.76 100.325 159.344C100.709 158.928 100.901 158.4 100.901 157.76C100.901 156.672 100.421 155.888 99.4609 155.408C98.5009 154.896 97.3489 154.384 96.0049 153.872C94.0529 153.136 92.5649 152.24 91.5409 151.184C90.5169 150.096 90.0049 148.8 90.0049 147.296C90.0049 145.984 90.3569 144.832 91.0609 143.84C91.7649 142.848 92.6929 142.08 93.8449 141.536C94.9969 140.96 96.2769 140.672 97.6849 140.672C99.1569 140.672 100.421 140.928 101.477 141.44C102.565 141.952 103.445 142.576 104.117 143.312C104.821 144.016 105.317 144.704 105.605 145.376L100.757 147.296L99.6529 144.848C99.5569 144.752 99.3329 144.64 98.9809 144.512C98.6609 144.352 98.1809 144.272 97.5409 144.272C96.8369 144.272 96.1489 144.48 95.4769 144.896C94.8369 145.28 94.5169 145.936 94.5169 146.864C94.5169 147.792 95.0129 148.512 96.0049 149.024C97.0289 149.536 98.4209 150.144 100.181 150.848C101.781 151.488 103.029 152.32 103.925 153.344C104.853 154.368 105.317 155.68 105.317 157.28C105.317 158.784 104.933 160.048 104.165 161.072C103.397 162.096 102.389 162.88 101.141 163.424C99.9249 163.936 98.6449 164.192 97.3009 164.192ZM116.947 164.192C115.411 164.192 114.163 163.712 113.203 162.752C112.243 161.792 111.763 160.272 111.763 158.192L111.859 144.176H108.115L107.443 141.248L107.779 140.72H111.907L112.003 132.656L115.843 131.792L116.179 132.416V140.72H121.123C121.283 140.72 121.363 140.816 121.363 141.008V144.176H116.131V158.288C116.131 159.216 116.291 159.824 116.611 160.112C116.931 160.368 117.395 160.496 118.003 160.496C118.611 160.496 119.219 160.336 119.827 160.016C120.435 159.664 120.867 159.392 121.123 159.2L122.083 162.32C121.699 162.704 121.059 163.12 120.163 163.568C119.299 163.984 118.227 164.192 116.947 164.192ZM134.527 164.192C132.543 164.192 130.783 163.68 129.247 162.656C127.743 161.632 126.559 160.224 125.695 158.432C124.863 156.64 124.447 154.608 124.447 152.336C124.447 150.032 124.879 148 125.743 146.24C126.607 144.48 127.791 143.12 129.295 142.16C130.831 141.168 132.575 140.672 134.527 140.672C136.575 140.672 138.351 141.168 139.855 142.16C141.391 143.152 142.575 144.528 143.407 146.288C144.271 148.048 144.703 150.064 144.703 152.336C144.703 154.608 144.271 156.64 143.407 158.432C142.575 160.224 141.391 161.632 139.855 162.656C138.351 163.68 136.575 164.192 134.527 164.192ZM134.527 160.592C136.415 160.592 137.823 159.856 138.751 158.384C139.711 156.88 140.191 154.96 140.191 152.624C140.191 150.256 139.711 148.272 138.751 146.672C137.823 145.072 136.415 144.272 134.527 144.272C133.279 144.272 132.239 144.672 131.407 145.472C130.575 146.272 129.951 147.312 129.535 148.592C129.119 149.872 128.911 151.264 128.911 152.768C128.911 155.104 129.391 156.992 130.351 158.432C131.343 159.872 132.735 160.592 134.527 160.592ZM148.408 177.104L147.832 174.56L150.472 173.84V144.368L147.784 144.608L147.256 141.68L153.352 140.672L154.552 142.112C155.16 141.728 155.88 141.408 156.712 141.152C157.576 140.864 158.504 140.72 159.496 140.72C161.544 140.72 163.256 141.216 164.632 142.208C166.04 143.2 167.096 144.56 167.8 146.288C168.536 148.016 168.904 149.984 168.904 152.192C168.904 156 167.944 158.96 166.024 161.072C164.136 163.152 161.672 164.192 158.632 164.192C157.224 164.192 155.944 163.968 154.792 163.52V173.408L160.552 174.512L160.504 177.104H148.408ZM158.584 160.592C160.536 160.592 161.992 159.824 162.952 158.288C163.944 156.72 164.44 154.768 164.44 152.432C164.44 150.896 164.232 149.52 163.816 148.304C163.432 147.088 162.824 146.128 161.992 145.424C161.16 144.688 160.104 144.32 158.824 144.32C158.088 144.32 157.336 144.48 156.568 144.8C155.8 145.088 155.208 145.488 154.792 146V159.488C155.272 159.872 155.848 160.16 156.52 160.352C157.192 160.512 157.88 160.592 158.584 160.592ZM172.164 164L171.78 161.408L174.516 160.784V132.56H171.972L171.492 129.776L177.348 128.864L178.884 130.496V142.496C179.588 141.984 180.436 141.568 181.428 141.248C182.452 140.896 183.492 140.72 184.548 140.72C186.66 140.72 188.372 141.28 189.684 142.4C190.996 143.488 191.652 145.152 191.652 147.392V160.784L194.436 161.408V164H184.74L184.644 161.408L187.332 160.832V148.208C187.332 145.68 186.132 144.416 183.732 144.416C182.772 144.416 181.844 144.624 180.948 145.04C180.052 145.424 179.364 145.856 178.884 146.336V160.832L181.572 161.408V164H172.164ZM207.806 164.192C205.726 164.192 203.886 163.728 202.286 162.8C200.686 161.872 199.422 160.544 198.494 158.816C197.598 157.088 197.15 155.056 197.15 152.72C197.15 150.224 197.614 148.08 198.542 146.288C199.47 144.496 200.718 143.12 202.286 142.16C203.854 141.2 205.598 140.72 207.518 140.72C208.83 140.72 210.062 140.96 211.214 141.44C212.398 141.92 213.358 142.64 214.094 143.6C214.83 144.56 215.198 145.744 215.198 147.152C215.198 148.688 214.846 149.952 214.142 150.944C213.438 151.936 212.494 152.72 211.31 153.296C210.158 153.872 208.862 154.272 207.422 154.496C206.014 154.72 204.59 154.832 203.15 154.832H201.758C202.014 156.464 202.654 157.84 203.678 158.96C204.734 160.048 206.302 160.592 208.382 160.592C209.598 160.592 210.686 160.384 211.646 159.968C212.606 159.552 213.422 159.072 214.094 158.528L215.006 161.888C214.334 162.496 213.358 163.04 212.078 163.52C210.798 163.968 209.374 164.192 207.806 164.192ZM201.71 151.424H202.91C203.678 151.424 204.51 151.392 205.406 151.328C206.302 151.232 207.15 151.04 207.95 150.752C208.75 150.464 209.406 150.048 209.918 149.504C210.462 148.928 210.734 148.176 210.734 147.248C210.734 146.256 210.398 145.52 209.726 145.04C209.086 144.56 208.366 144.32 207.566 144.32C206.414 144.32 205.406 144.656 204.542 145.328C203.71 145.968 203.054 146.832 202.574 147.92C202.094 148.976 201.806 150.144 201.71 151.424ZM219.098 164L218.521 161.408L221.402 160.736V144.416L218.858 144.512L218.426 141.728L224.042 140.72L225.53 142.88C226.202 142.176 226.97 141.632 227.834 141.248C228.73 140.864 229.578 140.672 230.378 140.672C231.786 140.672 233.002 141.024 234.026 141.728C235.05 142.4 235.802 143.264 236.282 144.32L231.578 146.72L230.042 144.416C229.562 144.416 228.97 144.592 228.266 144.944C227.594 145.264 227.002 145.808 226.49 146.576C225.978 147.312 225.722 148.32 225.722 149.6V160.112L232.01 161.408L232.058 164H219.098Z" fill="white"/>
</g>
<path d="M314.628 173C311.494 173 308.584 172.456 305.898 171.367C303.249 170.279 301.104 168.627 299.462 166.413C297.821 164.161 297 161.365 297 158.024C297 155.247 297.802 152.845 299.406 150.818C301.011 148.753 303.286 147.477 306.234 146.989V146.82C303.883 145.056 302.708 142.861 302.708 140.233C302.708 137.756 303.603 135.767 305.394 134.265C307.185 132.764 309.647 132.013 312.781 132.013C315.019 132.013 316.903 132.52 318.433 133.534C319.963 134.509 320.727 135.954 320.727 137.869C320.727 139.07 320.373 140.102 319.664 140.965C318.993 141.828 318.079 142.26 316.922 142.26C316.213 142.26 315.598 142.072 315.075 141.697C314.59 141.322 314.348 141.003 314.348 140.74C314.348 140.702 314.516 140.534 314.852 140.233C315.187 139.933 315.486 139.576 315.747 139.164C316.045 138.713 316.195 138.206 316.195 137.643C316.195 136.555 315.803 135.692 315.019 135.054C314.273 134.378 313.322 134.04 312.165 134.04C310.375 134.04 308.976 134.584 307.968 135.673C306.998 136.761 306.513 138.113 306.513 139.727C306.513 142.466 307.651 144.456 309.927 145.694H311.774C312.371 145.694 312.762 145.769 312.949 145.92C313.173 146.032 313.303 146.408 313.341 147.046C313.341 147.421 313.247 147.74 313.061 148.003C312.874 148.265 312.613 148.397 312.277 148.397H310.319C307.894 148.622 306.047 149.579 304.779 151.268C303.547 152.957 302.932 154.909 302.932 157.123C302.932 159.525 303.491 161.627 304.611 163.429C305.73 165.231 307.278 166.619 309.255 167.595C311.27 168.571 313.546 169.059 316.083 169.059C318.806 169.059 321.306 168.496 323.582 167.37C325.857 166.206 327.667 164.63 329.01 162.641C330.353 160.614 331.024 158.343 331.024 155.828C331.024 153.651 330.427 151.756 329.234 150.142C328.04 148.528 326.398 147.721 324.309 147.721C323.227 147.721 322.164 148.04 321.119 148.678C320.112 149.279 319.608 150.142 319.608 151.268C319.608 151.869 319.758 152.394 320.056 152.845C320.392 153.257 320.877 153.52 321.511 153.633C322.481 153.745 323.264 153.558 323.861 153.07C324.458 152.582 324.794 152.319 324.869 152.281C325.055 152.319 325.279 152.582 325.54 153.07C325.839 153.52 325.988 154.046 325.988 154.646C325.988 155.772 325.596 156.654 324.813 157.292C324.067 157.93 323.134 158.249 322.015 158.249C320.597 158.249 319.459 157.686 318.601 156.56C317.743 155.397 317.314 153.914 317.314 152.113C317.314 149.41 318.023 147.346 319.44 145.92C320.858 144.493 322.537 143.536 324.477 143.048C326.417 142.523 328.935 142.072 332.032 141.697C334.755 141.434 336.751 141.097 338.019 140.684C338.84 140.383 339.512 139.971 340.034 139.445C340.594 138.882 340.873 138.263 340.873 137.587C340.873 136.461 340.183 135.804 338.803 135.617C337.833 135.504 337.049 135.692 336.453 136.18C335.856 136.668 335.52 136.93 335.445 136.968C335.221 136.93 334.96 136.63 334.662 136.067C334.363 135.504 334.27 134.866 334.382 134.153C334.531 133.102 334.979 132.314 335.725 131.788C336.471 131.263 337.348 131 338.355 131C339.176 131 339.866 131.131 340.426 131.394C341.321 131.807 341.974 132.464 342.384 133.365C342.795 134.265 343 135.26 343 136.349C343 138.375 342.347 140.158 341.041 141.697C339.773 143.198 338.057 144.362 335.893 145.188C333.729 145.976 331.341 146.37 328.73 146.37C331.938 149.11 333.543 152.281 333.543 155.885C333.543 159.338 332.703 162.359 331.024 164.949C329.383 167.539 327.126 169.528 324.253 170.917C321.38 172.306 318.172 173 314.628 173Z" fill="white"/>
<g filter="url(#filter1_d)">
<path d="M400.784 163L400.256 159.592L403.184 158.968V133.624L400.304 133.336V129.832H420.752L421.664 138.808H418.688L416.912 133.96H407.936V144.184H415.472V148.168H407.936V158.872H417.296L419.024 154.024H422.048L421.088 163H400.784ZM425.988 163L425.556 160.456L428.244 159.784V143.32L425.7 143.464L425.22 140.728L431.172 139.672L432.516 141.544C433.252 141.032 434.116 140.6 435.108 140.248C436.132 139.896 437.172 139.72 438.228 139.72C440.34 139.72 442.052 140.28 443.364 141.4C444.708 142.488 445.38 144.152 445.38 146.392V159.88L448.164 160.408L448.116 163H438.468L438.372 160.408L441.012 159.832V147.208C441.012 144.68 439.828 143.416 437.46 143.416C436.5 143.416 435.556 143.624 434.628 144.04C433.732 144.424 433.044 144.84 432.564 145.288V159.784L435.396 160.456V163H425.988ZM459.462 175.864C457.702 175.864 456.118 175.56 454.71 174.952C453.302 174.376 452.182 173.528 451.35 172.408C450.55 171.288 450.15 169.976 450.15 168.472C450.15 166.872 450.566 165.544 451.398 164.488C452.23 163.432 453.174 162.632 454.23 162.088C453.814 161.736 453.478 161.32 453.222 160.84C452.966 160.36 452.838 159.8 452.838 159.16C452.838 158.392 453.014 157.704 453.366 157.096C453.718 156.488 454.134 155.944 454.614 155.464C453.526 154.728 452.646 153.784 451.974 152.632C451.334 151.448 451.014 150.056 451.014 148.456C451.014 146.664 451.43 145.128 452.262 143.848C453.094 142.536 454.198 141.528 455.574 140.824C456.95 140.088 458.454 139.72 460.086 139.72C462.39 139.72 464.374 140.392 466.038 141.736L470.838 139.336L471.846 139.48L472.326 143.464L468.006 143.992C468.39 144.632 468.678 145.336 468.87 146.104C469.062 146.84 469.158 147.624 469.158 148.456C469.158 150.248 468.742 151.784 467.91 153.064C467.078 154.312 465.974 155.288 464.598 155.992C463.222 156.664 461.718 157 460.086 157C459.35 157 458.71 156.936 458.166 156.808L457.254 158.2L457.35 159.064L462.342 160.264C464.614 160.776 466.438 161.56 467.814 162.616C469.222 163.64 469.926 165.176 469.926 167.224C469.926 169.112 469.43 170.696 468.438 171.976C467.478 173.256 466.198 174.216 464.598 174.856C463.03 175.528 461.318 175.864 459.462 175.864ZM460.134 171.544C461.158 171.544 462.134 171.384 463.062 171.064C464.022 170.776 464.806 170.344 465.414 169.768C466.022 169.224 466.326 168.568 466.326 167.8C466.326 167.096 466.054 166.52 465.51 166.072C464.966 165.656 464.246 165.32 463.35 165.064C462.454 164.808 461.494 164.568 460.47 164.344C459.446 164.152 458.438 163.912 457.446 163.624C456.518 164.04 455.75 164.6 455.142 165.304C454.534 166.008 454.23 166.808 454.23 167.704C454.23 168.888 454.79 169.816 455.91 170.488C457.062 171.192 458.47 171.544 460.134 171.544ZM460.086 153.4C461.59 153.4 462.726 152.904 463.494 151.912C464.294 150.92 464.694 149.736 464.694 148.36C464.694 146.952 464.294 145.768 463.494 144.808C462.726 143.816 461.59 143.32 460.086 143.32C458.582 143.32 457.446 143.816 456.678 144.808C455.91 145.768 455.526 146.952 455.526 148.36C455.526 149.736 455.91 150.92 456.678 151.912C457.446 152.904 458.582 153.4 460.086 153.4ZM484.962 163.192C482.882 163.192 481.042 162.728 479.442 161.8C477.842 160.872 476.578 159.544 475.65 157.816C474.754 156.088 474.306 154.056 474.306 151.72C474.306 149.224 474.77 147.08 475.698 145.288C476.626 143.496 477.874 142.12 479.442 141.16C481.01 140.2 482.754 139.72 484.674 139.72C485.986 139.72 487.218 139.96 488.37 140.44C489.554 140.92 490.514 141.64 491.25 142.6C491.986 143.56 492.354 144.744 492.354 146.152C492.354 147.688 492.002 148.952 491.298 149.944C490.594 150.936 489.65 151.72 488.466 152.296C487.314 152.872 486.018 153.272 484.578 153.496C483.17 153.72 481.746 153.832 480.306 153.832H478.914C479.17 155.464 479.81 156.84 480.834 157.96C481.89 159.048 483.458 159.592 485.538 159.592C486.754 159.592 487.842 159.384 488.802 158.968C489.762 158.552 490.578 158.072 491.25 157.528L492.162 160.888C491.49 161.496 490.514 162.04 489.234 162.52C487.954 162.968 486.53 163.192 484.962 163.192ZM478.866 150.424H480.066C480.834 150.424 481.666 150.392 482.562 150.328C483.458 150.232 484.306 150.04 485.106 149.752C485.906 149.464 486.562 149.048 487.074 148.504C487.618 147.928 487.89 147.176 487.89 146.248C487.89 145.256 487.554 144.52 486.882 144.04C486.242 143.56 485.522 143.32 484.722 143.32C483.57 143.32 482.562 143.656 481.698 144.328C480.866 144.968 480.21 145.832 479.73 146.92C479.25 147.976 478.962 149.144 478.866 150.424ZM495.63 163L495.246 160.456L498.126 159.784V131.56H495.582L495.102 128.776L500.958 127.864L502.494 129.496V159.784L505.518 160.456V163H495.63ZM508.769 163L508.289 160.456L511.073 159.784V143.464L508.529 143.56L508.049 140.728L513.953 139.672L515.393 141.256V159.784L518.177 160.408V163H508.769ZM512.609 133.96C511.809 133.96 511.105 133.672 510.497 133.096C509.921 132.488 509.633 131.784 509.633 130.984C509.633 130.152 509.921 129.448 510.497 128.872C511.105 128.296 511.809 128.008 512.609 128.008C513.441 128.008 514.145 128.296 514.721 128.872C515.297 129.448 515.585 130.152 515.585 130.984C515.585 131.784 515.297 132.488 514.721 133.096C514.145 133.672 513.441 133.96 512.609 133.96ZM521.613 163L521.181 160.456L523.869 159.784V143.32L521.325 143.464L520.845 140.728L526.797 139.672L528.141 141.544C528.877 141.032 529.741 140.6 530.733 140.248C531.757 139.896 532.797 139.72 533.853 139.72C535.965 139.72 537.677 140.28 538.989 141.4C540.333 142.488 541.005 144.152 541.005 146.392V159.88L543.789 160.408L543.741 163H534.093L533.997 160.408L536.637 159.832V147.208C536.637 144.68 535.453 143.416 533.085 143.416C532.125 143.416 531.181 143.624 530.253 144.04C529.357 144.424 528.669 144.84 528.189 145.288V159.784L531.021 160.456V163H521.613ZM553.595 163.192C551.547 163.192 549.851 162.616 548.507 161.464C547.195 160.28 546.539 158.744 546.539 156.856C546.539 155.32 546.939 154.072 547.739 153.112C548.539 152.12 549.563 151.352 550.811 150.808C552.059 150.232 553.387 149.832 554.795 149.608C556.203 149.352 557.515 149.208 558.731 149.176V145.768C558.731 145.064 558.411 144.488 557.771 144.04C557.131 143.56 556.219 143.32 555.035 143.32C554.651 143.32 554.219 143.352 553.739 143.416C553.291 143.448 552.923 143.544 552.635 143.704L551.627 146.728L546.731 145.144C547.339 143.48 548.427 142.168 549.995 141.208C551.563 140.216 553.307 139.72 555.227 139.72C557.563 139.72 559.451 140.312 560.891 141.496C562.363 142.68 563.099 144.504 563.099 146.968V158.632C563.099 159.432 563.419 159.832 564.059 159.832C564.251 159.832 564.427 159.816 564.587 159.784C564.747 159.72 564.875 159.688 564.971 159.688L565.643 161.896C565.355 162.184 564.923 162.472 564.347 162.76C563.803 163.048 563.163 163.192 562.427 163.192C561.531 163.192 560.811 162.984 560.267 162.568C559.755 162.152 559.387 161.624 559.163 160.984C558.459 161.656 557.643 162.2 556.715 162.616C555.787 163 554.747 163.192 553.595 163.192ZM554.315 159.544C555.275 159.544 556.155 159.32 556.955 158.872C557.755 158.392 558.347 157.8 558.731 157.096V152.488C558.027 152.52 557.227 152.6 556.331 152.728C555.467 152.824 554.635 153.016 553.835 153.304C553.035 153.56 552.363 153.96 551.819 154.504C551.307 155.016 551.051 155.704 551.051 156.568C551.051 157.4 551.323 158.104 551.867 158.68C552.443 159.256 553.259 159.544 554.315 159.544Z" fill="white"/>
</g>
<g filter="url(#filter2_i)">
<path d="M275.476 103.519C274.606 104.389 273.714 105.207 272.528 105.699C272.318 106.119 272.077 106.31 272.077 106.827C272.077 107.207 272.812 107.095 273.012 106.935C273.346 106.668 273.783 106.566 274.115 106.234C274.444 105.905 274.894 105.72 275.234 105.398C276.059 104.619 276.912 104.045 278.057 104.045C279.394 104.045 280.438 103.685 281.666 103.26C283.148 102.747 284.573 101.706 285.992 101.038C286.5 100.799 287.088 100.888 287.646 100.888C288.278 100.888 288.872 100.737 289.484 100.737C292.223 100.737 294.318 98.7976 296.809 98.0311C300.156 97.0012 303.136 94.6226 306.64 94.122C308.691 93.829 310.738 93.3703 312.822 93.3703H316.397C317.858 93.3703 319.271 93.6172 320.723 93.671C323.329 93.7674 325.996 94.0149 328.575 94.3893C330.601 94.6833 332.531 95.2296 334.505 95.6589C335.554 95.8869 336.673 96.4252 337.629 96.9035C338.106 97.1418 338.59 97.5499 339.133 97.58C340.206 97.6397 341.334 98.2589 342.365 97.5717C343.029 97.1295 342.741 95.6448 342.741 94.9489C342.741 93.96 342.03 93.157 341.079 92.9192C339.7 92.5744 338.48 91.6046 337.036 91.4241C335.639 91.2495 334.328 90.5549 332.96 90.2129C331.42 89.8278 329.899 89.066 328.316 88.8681C326.918 88.6933 325.487 88.2584 324.089 88.2584C322.67 88.2584 321.27 88.5591 319.888 88.5591C318.343 88.5591 316.858 89.1429 315.311 89.1605C314.117 89.174 312.882 89.1661 311.702 89.3442C307.14 90.0328 302.435 90.024 297.937 91.1484C295.944 91.6466 293.794 91.8648 291.956 92.8858C291.035 93.3979 289.956 93.8129 288.974 94.1972C288.132 94.5266 286.986 94.9118 286.226 95.4C284.994 96.1923 283.311 96.5859 282.234 97.6636C281.111 98.7867 280.118 99.9165 278.834 100.879C278.242 101.323 277.653 101.805 277.072 102.241C276.597 102.597 275.891 103.105 275.476 103.519Z" fill="white"/>
<path d="M264.484 115.622C265.88 114.505 267.315 112.642 267.717 110.961C268.293 110.961 268.919 111.199 268.919 111.863C268.919 112.34 269.078 113.172 268.844 113.592C268.523 114.17 268.271 114.726 267.867 115.288C267.509 115.785 266.956 116.117 266.581 116.599C265.775 117.635 266.479 119.234 265.946 120.433C265.226 122.053 264.597 123.666 264.075 125.361C263.66 126.711 263.404 128.566 262.538 129.68C262.341 129.933 262.334 130.362 262.296 130.665C262.224 131.235 261.932 131.749 261.736 132.277C261.52 132.859 261.343 133.688 261.018 134.199C260.521 134.979 260.12 136.192 259.932 137.089C259.804 137.699 259.443 138.23 259.305 138.851C259.165 139.482 258.846 140.068 258.846 140.73V142.61C258.846 144.157 258.996 145.635 258.996 147.162C258.996 148.147 258.723 149.585 259.08 150.503C259.418 151.373 259.741 152.133 260.015 153.026C260.392 154.249 259.928 155.786 260.207 157.043C260.633 158.956 260.5 160.986 260.5 162.974C260.5 164.815 261.648 166.687 262.905 167.944C263.344 168.382 263.687 169 264.025 169.531C264.425 170.16 264.31 170.917 264.593 171.552C265.096 172.684 265.01 174.125 265.912 175.077C266.264 175.448 266.332 176.011 266.664 176.363C266.893 176.606 267.181 176.846 267.257 177.19C267.381 177.745 268.126 178.331 268.468 178.769C268.776 179.384 270.171 180.125 270.799 180.414C271.26 180.627 271.615 180.902 272.085 181.108C272.689 181.372 273.287 181.638 273.881 181.926C274.692 182.32 275.855 182.778 276.437 183.505C276.611 183.723 277.1 183.953 277.339 184.106C277.675 184.322 277.897 184.709 278.241 184.9C279.11 185.383 280.384 186.571 280.496 187.64C280.555 188.194 280.866 188.83 281.098 189.352C281.352 189.924 282.322 190.075 282.601 190.563C282.88 191.05 283.696 191.741 284.105 192.15C284.639 192.685 285.165 193.227 285.675 193.737C286.911 194.973 288.392 196.24 289.968 197.028C293.139 198.613 296.228 200.888 299.808 201.438C300.873 201.602 302.177 201.693 303.116 202.29C303.608 202.604 304.624 202.964 305.187 203.159C306.834 203.729 308.686 203.577 310.416 203.577C311.347 203.577 312.127 203.418 313.039 203.201C314.444 202.866 315.894 202.975 317.332 202.975C319.057 202.975 320.739 202.675 322.444 202.675C324.007 202.675 325.879 202.4 327.18 201.388C327.876 200.847 328.943 200.79 329.594 200.269C330.109 199.857 330.818 199.91 331.39 199.592C331.751 199.392 332.197 199.513 332.593 199.3C332.936 199.115 333.491 199.217 333.871 199.217C334.681 199.217 335.512 199.066 336.351 199.066C338.052 199.066 339.448 198.78 340.937 198.014C343.027 196.939 344.852 195.366 346.951 194.372C348.539 193.62 350.212 192.924 351.846 192.15C352.114 192.023 352.412 192.08 352.664 191.966C352.856 191.88 352.948 191.663 353.149 191.582C353.582 191.409 353.913 191.051 354.243 190.722C354.969 189.996 355.678 189.248 356.423 188.542C356.81 188.175 357.349 187.859 357.776 187.523C358.13 187.244 358.253 186.793 358.603 186.52C359.411 185.892 360.029 184.899 360.7 184.106C362.771 181.659 364.535 179.14 365.812 176.221C366.169 175.404 366.409 174.627 366.981 173.991C367.294 173.643 367.767 173.381 368 172.972C368.343 172.372 368.576 171.718 368.869 171.101C369.103 170.606 369.217 169.73 369.537 169.33C369.835 168.957 369.967 168.126 370.105 167.643C370.308 166.932 370.346 166.042 370.673 165.388C371.037 164.659 372.21 163.272 372.21 162.531C372.21 161.653 373.066 160.126 374.014 160.126C374.599 160.126 375.2 160.276 375.743 160.276C376.238 160.276 376.867 160.139 377.238 160.51C377.718 160.989 377.322 161.528 377.322 162.08C377.322 162.456 377.139 163.311 376.946 163.659C376.768 163.979 376.906 164.426 376.795 164.778C376.636 165.289 376.433 165.768 376.303 166.29L376.293 166.329C376.162 166.851 376.021 167.414 375.968 167.944C375.931 168.314 375.668 168.534 375.668 168.921C375.668 169.49 375.176 170.141 374.949 170.65C374.697 171.218 374.394 171.989 374.306 172.605C374.246 173.029 373.923 173.536 373.788 173.966C373.673 174.335 373.552 174.664 373.379 175.01C373.087 175.594 372.535 175.988 372.243 176.514C371.752 177.398 371.158 178.259 370.631 179.136C370.115 179.997 369.602 181.012 369.169 181.926C368.453 183.438 367.54 184.792 366.346 185.986C365.27 187.062 364.548 188.523 363.606 189.744C362.28 191.463 359.77 192.14 358.603 193.954C357.43 195.779 355.759 197.085 354.093 198.381C352.91 199.301 351.771 200.682 350.484 201.397C349.632 201.87 348.73 202.296 347.82 202.641C346.966 202.965 346.132 203.317 345.264 203.61C344.201 203.969 342.853 204.21 341.864 204.704C339.755 205.759 337.417 206.574 335.19 207.369C333.274 208.053 331.211 208.187 329.21 208.572C328.055 208.794 327.013 208.989 325.827 208.989C324.921 208.989 324.053 208.839 323.129 208.839C320.392 208.839 317.644 208.689 314.893 208.689C312.428 208.689 309.929 208.087 307.484 208.087C305.644 208.087 303.253 207.274 301.696 206.283C300.708 205.655 299.607 205.71 298.538 205.381C297.247 204.983 295.804 204.455 294.454 204.32C293.387 204.213 292.519 203.623 291.505 203.393C290.262 203.11 289.453 202.16 288.315 201.781C287.239 201.422 286.178 200.915 285.157 200.419C284.301 200.004 283.21 199.581 282.451 199.033C280.747 197.802 278.801 197.158 277.456 195.424C276.074 193.644 273.315 193.785 272.194 191.766C271.722 190.916 270.998 190.08 270.273 189.435C269.759 188.979 269.375 188.351 268.777 188.015C268.401 187.804 268.029 187.484 267.717 187.189C267.239 186.738 266.25 186.341 266.063 185.685C265.892 185.088 265.391 184.854 264.977 184.449C264.216 183.705 263.38 182.857 262.922 181.885C262.425 180.829 261.767 179.995 261.435 178.836C261.154 177.852 260.559 176.573 259.823 175.837C258.666 174.68 257.922 173.078 257.643 171.477C257.408 170.126 257.341 168.671 256.925 167.376C256.592 166.339 255.99 165.449 255.831 164.335C255.758 163.825 255.454 163.348 255.396 162.832C255.334 162.27 255.393 161.969 255.121 161.479C254.756 160.823 254.335 159.95 254.068 159.257C253.777 158.499 253.734 157.929 253.734 157.102C253.734 155.167 253.751 153.267 253.918 151.338C254.07 149.58 254.035 147.824 254.035 146.06C254.035 144.927 254.335 143.829 254.335 142.685C254.335 137.92 255.286 133.438 257.033 129.07C257.357 128.261 257.447 127.382 257.952 126.656C258.243 126.238 258.551 125.841 258.729 125.361C259.097 124.369 259.611 123.562 259.898 122.555C260.305 121.133 261.868 120.537 262.521 119.23C263.051 118.17 263.5 116.409 264.484 115.622Z" fill="white"/>
<path d="M350.409 102.241C349.376 102.112 350.045 100.232 350.259 99.6849C350.65 98.9022 351.772 99.9984 352.029 100.32C352.387 100.767 352.299 101.96 352.029 102.391C351.585 103.103 350.909 102.303 350.409 102.241Z" fill="white"/>
<path d="M363.94 116.641C363.11 116.226 363.64 114.968 363.64 114.269C364.449 114.269 365.242 113.846 365.452 114.795C365.631 115.597 365.925 115.752 365.736 116.599C365.504 117.643 364.447 116.894 363.94 116.641Z" fill="white"/>
<path d="M369.061 130.356C369.339 128.412 369.353 126.51 369.353 124.493C369.353 123.989 369.401 123.372 369.838 123.023C370.083 122.826 370.809 123.46 370.974 123.624C371.695 124.345 372.739 125.185 372.97 126.222C373.119 126.894 373.911 127.436 374.239 128.026C374.55 128.586 374.944 129.067 375.217 129.68C375.679 130.72 375.807 132.204 376.536 133.096C377.429 134.186 377.021 135.427 377.021 136.671C377.021 137.89 376.911 139.238 377.163 140.371C377.441 141.621 377.622 142.72 377.622 144.038C377.622 144.703 376.985 145.039 377.021 145.692C377.053 146.274 377.622 146.726 377.622 147.421C377.622 148.435 377.848 150.809 376.804 151.405C376.322 151.68 375.641 151.607 375.142 151.33C374.753 151.114 374.59 150.487 374.164 150.236C373.448 149.815 374.402 147.192 373.83 146.477C373.489 146.051 373.185 145.303 372.928 144.79C372.63 144.193 372.407 143.552 372.21 142.911C372.133 142.661 372.139 142.11 371.984 141.925C371.767 141.664 371.541 141.141 371.466 140.806C371.355 140.303 371.171 139.432 370.932 139.001C370.654 138.502 370.556 137.317 370.556 136.746C370.556 135.947 370.164 135.223 370.105 134.449C369.997 133.051 368.85 131.83 369.061 130.356Z" fill="white"/>
</g>
<rect x="315" y="34" width="2" height="34" rx="1" fill="white"/>
<rect x="315" width="2" height="20" rx="1" fill="white"/>
<rect x="315" y="24" width="2" height="4" rx="1" fill="white"/>
<rect x="333.395" y="46.5103" width="2" height="23.1789" rx="1" transform="rotate(8.42202 333.395 46.5103)" fill="white"/>
<rect x="336.417" y="26.0956" width="2" height="16.7994" rx="1" transform="rotate(8.42202 336.417 26.0956)" fill="white"/>
<rect x="367.69" y="57.8202" width="2" height="23.1789" rx="1" transform="rotate(30.2882 367.69 57.8202)" fill="white"/>
<rect x="378.099" y="40" width="2" height="16.7994" rx="1" transform="rotate(30.2882 378.099 40)" fill="white"/>
<rect x="395.304" y="81.8528" width="2" height="23.1789" rx="1" transform="rotate(52.1951 395.304 81.8528)" fill="white"/>
<rect x="411.609" y="69.2028" width="2" height="16.7994" rx="1" transform="rotate(52.1951 411.609 69.2028)" fill="white"/>
<rect x="416.86" y="110.902" width="2" height="23.1789" rx="1" transform="rotate(73.6351 416.86 110.902)" fill="white"/>
<rect x="436.661" y="105.087" width="2" height="16.7994" rx="1" transform="rotate(73.6351 436.661 105.087)" fill="white"/>
<rect x="296.739" y="46.117" width="2" height="23.1789" rx="1" transform="rotate(-8.83502 296.739 46.117)" fill="white"/>
<rect x="293.57" y="25.7247" width="2" height="16.7994" rx="1" transform="rotate(-8.83502 293.57 25.7247)" fill="white"/>
<rect x="261.89" y="58.5855" width="2" height="23.1789" rx="1" transform="rotate(-31.8488 261.89 58.5855)" fill="white"/>
<rect x="251" y="41.0554" width="2" height="16.7994" rx="1" transform="rotate(-31.8488 251 41.0554)" fill="white"/>
<rect x="234.793" y="83.1538" width="2" height="23.1789" rx="1" transform="rotate(-52.3857 234.793 83.1538)" fill="white"/>
<rect x="218.445" y="70.558" width="2" height="16.7994" rx="1" transform="rotate(-52.3857 218.445 70.558)" fill="white"/>
<rect x="216.424" y="112.656" width="2" height="23.1789" rx="1" transform="rotate(-69.5385 216.424 112.656)" fill="white"/>
<rect x="197.089" y="105.442" width="2" height="16.7994" rx="1" transform="rotate(-69.5385 197.089 105.442)" fill="white"/>
<rect x="354.017" y="41.1654" width="2" height="34" rx="1" transform="rotate(18.9076 354.017 41.1654)" fill="white"/>
<rect x="365.035" y="9" width="2" height="20" rx="1" transform="rotate(18.9076 365.035 9)" fill="white"/>
<rect x="357.258" y="31.705" width="2" height="4" rx="1" transform="rotate(18.9076 357.258 31.705)" fill="white"/>
<rect x="389.081" y="60.8539" width="2" height="34" rx="1" transform="rotate(40.4997 389.081 60.8539)" fill="white"/>
<rect x="411.162" y="35" width="2" height="20" rx="1" transform="rotate(40.4997 411.162 35)" fill="white"/>
<rect x="395.576" y="53.2498" width="2" height="4" rx="1" transform="rotate(40.4997 395.576 53.2498)" fill="white"/>
<rect x="416.098" y="90.5865" width="2" height="34" rx="1" transform="rotate(58.852 416.098 90.5865)" fill="white"/>
<rect x="445.197" y="73" width="2" height="20" rx="1" transform="rotate(58.852 445.197 73)" fill="white"/>
<rect x="424.657" y="85.414" width="2" height="4" rx="1" transform="rotate(58.852 424.657 85.414)" fill="white"/>
<rect x="275.286" y="40.7361" width="2" height="34" rx="1" transform="rotate(-19.3863 275.286 40.7361)" fill="white"/>
<rect x="264" y="8.66388" width="2" height="20" rx="1" transform="rotate(-19.3863 264 8.66388)" fill="white"/>
<rect x="271.966" y="31.3031" width="2" height="4" rx="1" transform="rotate(-19.3863 271.966 31.3031)" fill="white"/>
<rect x="241.197" y="61.0598" width="2" height="34" rx="1" transform="rotate(-40.7581 241.197 61.0598)" fill="white"/>
<rect x="219" y="35.3057" width="2" height="20" rx="1" transform="rotate(-40.7581 219 35.3057)" fill="white"/>
<rect x="234.669" y="53.4851" width="2" height="4" rx="1" transform="rotate(-40.7581 234.669 53.4851)" fill="white"/>
<rect x="214.927" y="92.5685" width="2" height="34" rx="1" transform="rotate(-58.2982 214.927 92.5685)" fill="white"/>
<rect x="186" y="74.7016" width="2" height="20" rx="1" transform="rotate(-58.2982 186 74.7016)" fill="white"/>
<rect x="206.419" y="87.3136" width="2" height="4" rx="1" transform="rotate(-58.2982 206.419 87.3136)" fill="white"/>
<rect width="2" height="34" rx="1" transform="matrix(1 0 0 -1 315 264.759)" fill="white"/>
<rect width="2" height="20" rx="1" transform="matrix(1 0 0 -1 315 298.759)" fill="white"/>
<rect width="2" height="4" rx="1" transform="matrix(1 0 0 -1 315 274.759)" fill="white"/>
<rect width="2" height="23.1789" rx="1" transform="matrix(0.989216 -0.146463 -0.146463 -0.989216 333.395 252.249)" fill="white"/>
<rect width="2" height="16.7994" rx="1" transform="matrix(0.989216 -0.146463 -0.146463 -0.989216 336.417 272.663)" fill="white"/>
<rect width="2" height="23.1789" rx="1" transform="matrix(0.863499 -0.50435 -0.50435 -0.863499 367.69 240.939)" fill="white"/>
<rect width="2" height="16.7994" rx="1" transform="matrix(0.863499 -0.50435 -0.50435 -0.863499 378.099 258.759)" fill="white"/>
<rect width="2" height="23.1789" rx="1" transform="matrix(0.612975 -0.790102 -0.790102 -0.612975 395.304 216.906)" fill="white"/>
<rect width="2" height="16.7994" rx="1" transform="matrix(0.612975 -0.790102 -0.790102 -0.612975 411.609 229.556)" fill="white"/>
<rect width="2" height="23.1789" rx="1" transform="matrix(0.281753 -0.959487 -0.959487 -0.281753 416.86 187.857)" fill="white"/>
<rect width="2" height="16.7994" rx="1" transform="matrix(0.281753 -0.959487 -0.959487 -0.281753 436.661 193.672)" fill="white"/>
<rect width="2" height="23.1789" rx="1" transform="matrix(0.988135 0.15359 0.15359 -0.988135 296.739 252.642)" fill="white"/>
<rect width="2" height="16.7994" rx="1" transform="matrix(0.988135 0.15359 0.15359 -0.988135 293.57 273.034)" fill="white"/>
<rect width="2" height="23.1789" rx="1" transform="matrix(0.849444 0.527679 0.527679 -0.849444 261.89 240.174)" fill="white"/>
<rect width="2" height="16.7994" rx="1" transform="matrix(0.849444 0.527679 0.527679 -0.849444 251 257.704)" fill="white"/>
<rect width="2" height="23.1789" rx="1" transform="matrix(0.610343 0.792137 0.792137 -0.610343 234.793 215.605)" fill="white"/>
<rect width="2" height="16.7994" rx="1" transform="matrix(0.610343 0.792137 0.792137 -0.610343 218.445 228.201)" fill="white"/>
<rect width="2" height="23.1789" rx="1" transform="matrix(0.349578 0.936907 0.936907 -0.349578 216.424 186.103)" fill="white"/>
<rect width="2" height="16.7994" rx="1" transform="matrix(0.349578 0.936907 0.936907 -0.349578 197.089 193.317)" fill="white"/>
<rect width="2" height="34" rx="1" transform="matrix(0.946043 -0.324042 -0.324042 -0.946043 354.017 257.594)" fill="white"/>
<rect width="2" height="20" rx="1" transform="matrix(0.946043 -0.324042 -0.324042 -0.946043 365.035 289.759)" fill="white"/>
<rect width="2" height="4" rx="1" transform="matrix(0.946043 -0.324042 -0.324042 -0.946043 357.258 267.054)" fill="white"/>
<rect width="2" height="34" rx="1" transform="matrix(0.760409 -0.649444 -0.649444 -0.760409 389.081 237.905)" fill="white"/>
<rect width="2" height="20" rx="1" transform="matrix(0.760409 -0.649444 -0.649444 -0.760409 411.162 263.759)" fill="white"/>
<rect width="2" height="4" rx="1" transform="matrix(0.760409 -0.649444 -0.649444 -0.760409 395.576 245.509)" fill="white"/>
<rect width="2" height="34" rx="1" transform="matrix(0.517251 -0.855834 -0.855834 -0.517251 416.098 208.173)" fill="white"/>
<rect width="2" height="20" rx="1" transform="matrix(0.517251 -0.855834 -0.855834 -0.517251 445.197 225.759)" fill="white"/>
<rect width="2" height="4" rx="1" transform="matrix(0.517251 -0.855834 -0.855834 -0.517251 424.657 213.345)" fill="white"/>
<rect width="2" height="34" rx="1" transform="matrix(0.943302 0.331936 0.331936 -0.943302 275.286 258.023)" fill="white"/>
<rect width="2" height="20" rx="1" transform="matrix(0.943302 0.331936 0.331936 -0.943302 264 290.095)" fill="white"/>
<rect width="2" height="4" rx="1" transform="matrix(0.943302 0.331936 0.331936 -0.943302 271.966 267.456)" fill="white"/>
<rect width="2" height="34" rx="1" transform="matrix(0.757473 0.652867 0.652867 -0.757473 241.197 237.699)" fill="white"/>
<rect width="2" height="20" rx="1" transform="matrix(0.757473 0.652867 0.652867 -0.757473 219 263.453)" fill="white"/>
<rect width="2" height="4" rx="1" transform="matrix(0.757473 0.652867 0.652867 -0.757473 234.669 245.274)" fill="white"/>
<rect width="2" height="34" rx="1" transform="matrix(0.525499 0.850794 0.850794 -0.525499 214.927 206.191)" fill="white"/>
<rect width="2" height="20" rx="1" transform="matrix(0.525499 0.850794 0.850794 -0.525499 186 224.057)" fill="white"/>
<rect width="2" height="4" rx="1" transform="matrix(0.525499 0.850794 0.850794 -0.525499 206.419 211.445)" fill="white"/>
<defs>
<filter id="filter0_d" x="0.631989" y="128.864" width="239.65" height="56.24" filterUnits="userSpaceOnUse" color-interpolation-filters="sRGB">
<feFlood flood-opacity="0" result="BackgroundImageFix"/>
<feColorMatrix in="SourceAlpha" type="matrix" values="0 0 0 0 0 0 0 0 0 0 0 0 0 0 0 0 0 0 127 0"/>
<feOffset dy="4"/>
<feGaussianBlur stdDeviation="2"/>
<feColorMatrix type="matrix" values="0 0 0 0 0 0 0 0 0 0 0 0 0 0 0 0 0 0 0.25 0"/>
<feBlend mode="normal" in2="BackgroundImageFix" result="effect1_dropShadow"/>
<feBlend mode="normal" in="SourceGraphic" in2="effect1_dropShadow" result="shape"/>
</filter>
<filter id="filter1_d" x="396.256" y="127.864" width="173.387" height="56" filterUnits="userSpaceOnUse" color-interpolation-filters="sRGB">
<feFlood flood-opacity="0" result="BackgroundImageFix"/>
<feColorMatrix in="SourceAlpha" type="matrix" values="0 0 0 0 0 0 0 0 0 0 0 0 0 0 0 0 0 0 127 0"/>
<feOffset dy="4"/>
<feGaussianBlur stdDeviation="2"/>
<feColorMatrix type="matrix" values="0 0 0 0 0 0 0 0 0 0 0 0 0 0 0 0 0 0 0.25 0"/>
<feBlend mode="normal" in2="BackgroundImageFix" result="effect1_dropShadow"/>
<feBlend mode="normal" in="SourceGraphic" in2="effect1_dropShadow" result="shape"/>
</filter>
<filter id="filter2_i" x="253.734" y="88.2584" width="123.909" height="124.731" filterUnits="userSpaceOnUse" color-interpolation-filters="sRGB">
<feFlood flood-opacity="0" result="BackgroundImageFix"/>
<feBlend mode="normal" in="SourceGraphic" in2="BackgroundImageFix" result="shape"/>
<feColorMatrix in="SourceAlpha" type="matrix" values="0 0 0 0 0 0 0 0 0 0 0 0 0 0 0 0 0 0 127 0" result="hardAlpha"/>
<feOffset dy="4"/>
<feGaussianBlur stdDeviation="2"/>
<feComposite in2="hardAlpha" operator="arithmetic" k2="-1" k3="1"/>
<feColorMatrix type="matrix" values="0 0 0 0 0 0 0 0 0 0 0 0 0 0 0 0 0 0 0.25 0"/>
<feBlend mode="normal" in2="shape" result="effect1_innerShadow"/>
</filter>
</defs>
</svg>
