<svg width="564" height="299" viewBox="0 0 564 299" fill="none" xmlns="http://www.w3.org/2000/svg">
<path d="M17.712 164.192C14.64 164.192 11.888 163.52 9.456 162.176C7.056 160.832 5.152 158.928 3.744 156.464C2.336 154 1.632 151.072 1.632 147.68C1.632 145.152 2.048 142.864 2.88 140.816C3.712 138.736 4.864 136.96 6.336 135.488C7.808 133.984 9.504 132.832 11.424 132.032C13.376 131.232 15.44 130.832 17.616 130.832C19.152 130.832 20.48 130.944 21.6 131.168C22.752 131.36 23.696 131.536 24.432 131.696L25.344 140.432H22.032L20.112 135.104C19.856 135.072 19.584 135.04 19.296 135.008C19.008 134.976 18.544 134.96 17.904 134.96C15.664 134.96 13.696 135.504 12 136.592C10.304 137.68 8.976 139.168 8.016 141.056C7.056 142.912 6.544 144.992 6.48 147.296C6.512 149.696 6.976 151.872 7.872 153.824C8.8 155.744 10.096 157.264 11.76 158.384C13.456 159.504 15.472 160.064 17.808 160.064C18.992 160.064 20.192 159.872 21.408 159.488C22.624 159.104 23.648 158.56 24.48 157.856L26.112 161.408C25.248 162.208 24.032 162.88 22.464 163.424C20.896 163.936 19.312 164.192 17.712 164.192ZM29.1019 164L28.7179 161.408L31.4539 160.784V132.56H28.9099L28.4299 129.776L34.2859 128.864L35.8219 130.496V142.496C36.5259 141.984 37.3739 141.568 38.3659 141.248C39.3899 140.896 40.4299 140.72 41.4859 140.72C43.5979 140.72 45.3099 141.28 46.6219 142.4C47.9339 143.488 48.5899 145.152 48.5899 147.392V160.784L51.3739 161.408V164H41.6779L41.5819 161.408L44.2699 160.832V148.208C44.2699 145.68 43.0699 144.416 40.6699 144.416C39.7099 144.416 38.7819 144.624 37.8859 145.04C36.9899 145.424 36.3019 145.856 35.8219 146.336V160.832L38.5099 161.408V164H29.1019ZM54.6131 164L54.0371 161.408L56.9171 160.736V144.416L54.3731 144.512L53.9411 141.728L59.5571 140.72L61.0451 142.88C61.7171 142.176 62.4851 141.632 63.3491 141.248C64.2451 140.864 65.0931 140.672 65.8931 140.672C67.3011 140.672 68.5171 141.024 69.5411 141.728C70.5651 142.4 71.3171 143.264 71.7971 144.32L67.0931 146.72L65.5571 144.416C65.0771 144.416 64.4851 144.592 63.7811 144.944C63.1091 145.264 62.5171 145.808 62.0051 146.576C61.4931 147.312 61.2371 148.32 61.2371 149.6V160.112L67.5251 161.408L67.5731 164H54.6131ZM74.1131 164L73.6331 161.456L76.4171 160.784V144.464L73.8731 144.56L73.3931 141.728L79.2971 140.672L80.7371 142.256V160.784L83.5211 161.408V164H74.1131ZM77.9531 134.96C77.1531 134.96 76.4491 134.672 75.8411 134.096C75.2651 133.488 74.9771 132.784 74.9771 131.984C74.9771 131.152 75.2651 130.448 75.8411 129.872C76.4491 129.296 77.1531 129.008 77.9531 129.008C78.7851 129.008 79.4891 129.296 80.0651 129.872C80.6411 130.448 80.9291 131.152 80.9291 131.984C80.9291 132.784 80.6411 133.488 80.0651 134.096C79.4891 134.672 78.7851 134.96 77.9531 134.96ZM94.3009 164.192C92.8289 164.192 91.5329 163.936 90.4129 163.424C89.2929 162.88 88.3489 162.224 87.5809 161.456C86.8449 160.688 86.3169 159.92 85.9969 159.152L90.8929 157.28L92.0449 160.112C92.2369 160.176 92.5409 160.272 92.9569 160.4C93.3729 160.496 93.9169 160.544 94.5889 160.544C95.0369 160.544 95.5169 160.448 96.0289 160.256C96.5409 160.064 96.9729 159.76 97.3249 159.344C97.7089 158.928 97.9009 158.4 97.9009 157.76C97.9009 156.672 97.4209 155.888 96.4609 155.408C95.5009 154.896 94.3489 154.384 93.0049 153.872C91.0529 153.136 89.5649 152.24 88.5409 151.184C87.5169 150.096 87.0049 148.8 87.0049 147.296C87.0049 145.984 87.3569 144.832 88.0609 143.84C88.7649 142.848 89.6929 142.08 90.8449 141.536C91.9969 140.96 93.2769 140.672 94.6849 140.672C96.1569 140.672 97.4209 140.928 98.4769 141.44C99.5649 141.952 100.445 142.576 101.117 143.312C101.821 144.016 102.317 144.704 102.605 145.376L97.7569 147.296L96.6529 144.848C96.5569 144.752 96.3329 144.64 95.9809 144.512C95.6609 144.352 95.1809 144.272 94.5409 144.272C93.8369 144.272 93.1489 144.48 92.4769 144.896C91.8369 145.28 91.5169 145.936 91.5169 146.864C91.5169 147.792 92.0129 148.512 93.0049 149.024C94.0289 149.536 95.4209 150.144 97.1809 150.848C98.7809 151.488 100.029 152.32 100.925 153.344C101.853 154.368 102.317 155.68 102.317 157.28C102.317 158.784 101.933 160.048 101.165 161.072C100.397 162.096 99.3889 162.88 98.1409 163.424C96.9249 163.936 95.6449 164.192 94.3009 164.192ZM113.947 164.192C112.411 164.192 111.163 163.712 110.203 162.752C109.243 161.792 108.763 160.272 108.763 158.192L108.859 144.176H105.115L104.443 141.248L104.779 140.72H108.907L109.003 132.656L112.843 131.792L113.179 132.416V140.72H118.123C118.283 140.72 118.363 140.816 118.363 141.008V144.176H113.131V158.288C113.131 159.216 113.291 159.824 113.611 160.112C113.931 160.368 114.395 160.496 115.003 160.496C115.611 160.496 116.219 160.336 116.827 160.016C117.435 159.664 117.867 159.392 118.123 159.2L119.083 162.32C118.699 162.704 118.059 163.12 117.163 163.568C116.299 163.984 115.227 164.192 113.947 164.192ZM131.527 164.192C129.543 164.192 127.783 163.68 126.247 162.656C124.743 161.632 123.559 160.224 122.695 158.432C121.863 156.64 121.447 154.608 121.447 152.336C121.447 150.032 121.879 148 122.743 146.24C123.607 144.48 124.791 143.12 126.295 142.16C127.831 141.168 129.575 140.672 131.527 140.672C133.575 140.672 135.351 141.168 136.855 142.16C138.391 143.152 139.575 144.528 140.407 146.288C141.271 148.048 141.703 150.064 141.703 152.336C141.703 154.608 141.271 156.64 140.407 158.432C139.575 160.224 138.391 161.632 136.855 162.656C135.351 163.68 133.575 164.192 131.527 164.192ZM131.527 160.592C133.415 160.592 134.823 159.856 135.751 158.384C136.711 156.88 137.191 154.96 137.191 152.624C137.191 150.256 136.711 148.272 135.751 146.672C134.823 145.072 133.415 144.272 131.527 144.272C130.279 144.272 129.239 144.672 128.407 145.472C127.575 146.272 126.951 147.312 126.535 148.592C126.119 149.872 125.911 151.264 125.911 152.768C125.911 155.104 126.391 156.992 127.351 158.432C128.343 159.872 129.735 160.592 131.527 160.592ZM145.408 177.104L144.832 174.56L147.472 173.84V144.368L144.784 144.608L144.256 141.68L150.352 140.672L151.552 142.112C152.16 141.728 152.88 141.408 153.712 141.152C154.576 140.864 155.504 140.72 156.496 140.72C158.544 140.72 160.256 141.216 161.632 142.208C163.04 143.2 164.096 144.56 164.8 146.288C165.536 148.016 165.904 149.984 165.904 152.192C165.904 156 164.944 158.96 163.024 161.072C161.136 163.152 158.672 164.192 155.632 164.192C154.224 164.192 152.944 163.968 151.792 163.52V173.408L157.552 174.512L157.504 177.104H145.408ZM155.584 160.592C157.536 160.592 158.992 159.824 159.952 158.288C160.944 156.72 161.44 154.768 161.44 152.432C161.44 150.896 161.232 149.52 160.816 148.304C160.432 147.088 159.824 146.128 158.992 145.424C158.16 144.688 157.104 144.32 155.824 144.32C155.088 144.32 154.336 144.48 153.568 144.8C152.8 145.088 152.208 145.488 151.792 146V159.488C152.272 159.872 152.848 160.16 153.52 160.352C154.192 160.512 154.88 160.592 155.584 160.592ZM169.164 164L168.78 161.408L171.516 160.784V132.56H168.972L168.492 129.776L174.348 128.864L175.884 130.496V142.496C176.588 141.984 177.436 141.568 178.428 141.248C179.452 140.896 180.492 140.72 181.548 140.72C183.66 140.72 185.372 141.28 186.684 142.4C187.996 143.488 188.652 145.152 188.652 147.392V160.784L191.436 161.408V164H181.74L181.644 161.408L184.332 160.832V148.208C184.332 145.68 183.132 144.416 180.732 144.416C179.772 144.416 178.844 144.624 177.948 145.04C177.052 145.424 176.364 145.856 175.884 146.336V160.832L178.572 161.408V164H169.164ZM204.806 164.192C202.726 164.192 200.886 163.728 199.286 162.8C197.686 161.872 196.422 160.544 195.494 158.816C194.598 157.088 194.15 155.056 194.15 152.72C194.15 150.224 194.614 148.08 195.542 146.288C196.47 144.496 197.718 143.12 199.286 142.16C200.854 141.2 202.598 140.72 204.518 140.72C205.83 140.72 207.062 140.96 208.214 141.44C209.398 141.92 210.358 142.64 211.094 143.6C211.83 144.56 212.198 145.744 212.198 147.152C212.198 148.688 211.846 149.952 211.142 150.944C210.438 151.936 209.494 152.72 208.31 153.296C207.158 153.872 205.862 154.272 204.422 154.496C203.014 154.72 201.59 154.832 200.15 154.832H198.758C199.014 156.464 199.654 157.84 200.678 158.96C201.734 160.048 203.302 160.592 205.382 160.592C206.598 160.592 207.686 160.384 208.646 159.968C209.606 159.552 210.422 159.072 211.094 158.528L212.006 161.888C211.334 162.496 210.358 163.04 209.078 163.52C207.798 163.968 206.374 164.192 204.806 164.192ZM198.71 151.424H199.91C200.678 151.424 201.51 151.392 202.406 151.328C203.302 151.232 204.15 151.04 204.95 150.752C205.75 150.464 206.406 150.048 206.918 149.504C207.462 148.928 207.734 148.176 207.734 147.248C207.734 146.256 207.398 145.52 206.726 145.04C206.086 144.56 205.366 144.32 204.566 144.32C203.414 144.32 202.406 144.656 201.542 145.328C200.71 145.968 200.054 146.832 199.574 147.92C199.094 148.976 198.806 150.144 198.71 151.424ZM216.098 164L215.521 161.408L218.402 160.736V144.416L215.858 144.512L215.426 141.728L221.042 140.72L222.53 142.88C223.202 142.176 223.97 141.632 224.834 141.248C225.73 140.864 226.578 140.672 227.378 140.672C228.786 140.672 230.002 141.024 231.026 141.728C232.05 142.4 232.802 143.264 233.282 144.32L228.578 146.72L227.042 144.416C226.562 144.416 225.97 144.592 225.266 144.944C224.594 145.264 224.002 145.808 223.49 146.576C222.978 147.312 222.722 148.32 222.722 149.6V160.112L229.01 161.408L229.058 164H216.098Z" fill="white"/>
<path d="M311.628 173C308.494 173 305.584 172.456 302.898 171.367C300.249 170.279 298.104 168.627 296.462 166.413C294.821 164.161 294 161.365 294 158.024C294 155.247 294.802 152.845 296.406 150.818C298.011 148.753 300.286 147.477 303.234 146.989V146.82C300.883 145.056 299.708 142.861 299.708 140.233C299.708 137.756 300.603 135.767 302.394 134.265C304.185 132.764 306.647 132.013 309.781 132.013C312.019 132.013 313.903 132.52 315.433 133.534C316.963 134.509 317.727 135.954 317.727 137.869C317.727 139.07 317.373 140.102 316.664 140.965C315.993 141.828 315.079 142.26 313.922 142.26C313.213 142.26 312.598 142.072 312.075 141.697C311.59 141.322 311.348 141.003 311.348 140.74C311.348 140.702 311.516 140.534 311.852 140.233C312.187 139.933 312.486 139.576 312.747 139.164C313.045 138.713 313.195 138.206 313.195 137.643C313.195 136.555 312.803 135.692 312.019 135.054C311.273 134.378 310.322 134.04 309.165 134.04C307.375 134.04 305.976 134.584 304.968 135.673C303.998 136.761 303.513 138.113 303.513 139.727C303.513 142.466 304.651 144.456 306.927 145.694H308.774C309.371 145.694 309.762 145.769 309.949 145.92C310.173 146.032 310.303 146.408 310.341 147.046C310.341 147.421 310.247 147.74 310.061 148.003C309.874 148.265 309.613 148.397 309.277 148.397H307.319C304.894 148.622 303.047 149.579 301.779 151.268C300.547 152.957 299.932 154.909 299.932 157.123C299.932 159.525 300.491 161.627 301.611 163.429C302.73 165.231 304.278 166.619 306.255 167.595C308.27 168.571 310.546 169.059 313.083 169.059C315.806 169.059 318.306 168.496 320.582 167.37C322.857 166.206 324.667 164.63 326.01 162.641C327.353 160.614 328.024 158.343 328.024 155.828C328.024 153.651 327.427 151.756 326.234 150.142C325.04 148.528 323.398 147.721 321.309 147.721C320.227 147.721 319.164 148.04 318.119 148.678C317.112 149.279 316.608 150.142 316.608 151.268C316.608 151.869 316.758 152.394 317.056 152.845C317.392 153.257 317.877 153.52 318.511 153.633C319.481 153.745 320.264 153.558 320.861 153.07C321.458 152.582 321.794 152.319 321.869 152.281C322.055 152.319 322.279 152.582 322.54 153.07C322.839 153.52 322.988 154.046 322.988 154.646C322.988 155.772 322.596 156.654 321.813 157.292C321.067 157.93 320.134 158.249 319.015 158.249C317.597 158.249 316.459 157.686 315.601 156.56C314.743 155.397 314.314 153.914 314.314 152.113C314.314 149.41 315.023 147.346 316.44 145.92C317.858 144.493 319.537 143.536 321.477 143.048C323.417 142.523 325.935 142.072 329.032 141.697C331.755 141.434 333.751 141.097 335.019 140.684C335.84 140.383 336.512 139.971 337.034 139.445C337.594 138.882 337.873 138.263 337.873 137.587C337.873 136.461 337.183 135.804 335.803 135.617C334.833 135.504 334.049 135.692 333.453 136.18C332.856 136.668 332.52 136.93 332.445 136.968C332.221 136.93 331.96 136.63 331.662 136.067C331.363 135.504 331.27 134.866 331.382 134.153C331.531 133.102 331.979 132.314 332.725 131.788C333.471 131.263 334.348 131 335.355 131C336.176 131 336.866 131.131 337.426 131.394C338.321 131.807 338.974 132.464 339.384 133.365C339.795 134.265 340 135.26 340 136.349C340 138.375 339.347 140.158 338.041 141.697C336.773 143.198 335.057 144.362 332.893 145.188C330.729 145.976 328.341 146.37 325.73 146.37C328.938 149.11 330.543 152.281 330.543 155.885C330.543 159.338 329.703 162.359 328.024 164.949C326.383 167.539 324.126 169.528 321.253 170.917C318.38 172.306 315.172 173 311.628 173Z" fill="white"/>
<path d="M397.784 163L397.256 159.592L400.184 158.968V133.624L397.304 133.336V129.832H417.752L418.664 138.808H415.688L413.912 133.96H404.936V144.184H412.472V148.168H404.936V158.872H414.296L416.024 154.024H419.048L418.088 163H397.784ZM422.988 163L422.556 160.456L425.244 159.784V143.32L422.7 143.464L422.22 140.728L428.172 139.672L429.516 141.544C430.252 141.032 431.116 140.6 432.108 140.248C433.132 139.896 434.172 139.72 435.228 139.72C437.34 139.72 439.052 140.28 440.364 141.4C441.708 142.488 442.38 144.152 442.38 146.392V159.88L445.164 160.408L445.116 163H435.468L435.372 160.408L438.012 159.832V147.208C438.012 144.68 436.828 143.416 434.46 143.416C433.5 143.416 432.556 143.624 431.628 144.04C430.732 144.424 430.044 144.84 429.564 145.288V159.784L432.396 160.456V163H422.988ZM456.462 175.864C454.702 175.864 453.118 175.56 451.71 174.952C450.302 174.376 449.182 173.528 448.35 172.408C447.55 171.288 447.15 169.976 447.15 168.472C447.15 166.872 447.566 165.544 448.398 164.488C449.23 163.432 450.174 162.632 451.23 162.088C450.814 161.736 450.478 161.32 450.222 160.84C449.966 160.36 449.838 159.8 449.838 159.16C449.838 158.392 450.014 157.704 450.366 157.096C450.718 156.488 451.134 155.944 451.614 155.464C450.526 154.728 449.646 153.784 448.974 152.632C448.334 151.448 448.014 150.056 448.014 148.456C448.014 146.664 448.43 145.128 449.262 143.848C450.094 142.536 451.198 141.528 452.574 140.824C453.95 140.088 455.454 139.72 457.086 139.72C459.39 139.72 461.374 140.392 463.038 141.736L467.838 139.336L468.846 139.48L469.326 143.464L465.006 143.992C465.39 144.632 465.678 145.336 465.87 146.104C466.062 146.84 466.158 147.624 466.158 148.456C466.158 150.248 465.742 151.784 464.91 153.064C464.078 154.312 462.974 155.288 461.598 155.992C460.222 156.664 458.718 157 457.086 157C456.35 157 455.71 156.936 455.166 156.808L454.254 158.2L454.35 159.064L459.342 160.264C461.614 160.776 463.438 161.56 464.814 162.616C466.222 163.64 466.926 165.176 466.926 167.224C466.926 169.112 466.43 170.696 465.438 171.976C464.478 173.256 463.198 174.216 461.598 174.856C460.03 175.528 458.318 175.864 456.462 175.864ZM457.134 171.544C458.158 171.544 459.134 171.384 460.062 171.064C461.022 170.776 461.806 170.344 462.414 169.768C463.022 169.224 463.326 168.568 463.326 167.8C463.326 167.096 463.054 166.52 462.51 166.072C461.966 165.656 461.246 165.32 460.35 165.064C459.454 164.808 458.494 164.568 457.47 164.344C456.446 164.152 455.438 163.912 454.446 163.624C453.518 164.04 452.75 164.6 452.142 165.304C451.534 166.008 451.23 166.808 451.23 167.704C451.23 168.888 451.79 169.816 452.91 170.488C454.062 171.192 455.47 171.544 457.134 171.544ZM457.086 153.4C458.59 153.4 459.726 152.904 460.494 151.912C461.294 150.92 461.694 149.736 461.694 148.36C461.694 146.952 461.294 145.768 460.494 144.808C459.726 143.816 458.59 143.32 457.086 143.32C455.582 143.32 454.446 143.816 453.678 144.808C452.91 145.768 452.526 146.952 452.526 148.36C452.526 149.736 452.91 150.92 453.678 151.912C454.446 152.904 455.582 153.4 457.086 153.4ZM481.962 163.192C479.882 163.192 478.042 162.728 476.442 161.8C474.842 160.872 473.578 159.544 472.65 157.816C471.754 156.088 471.306 154.056 471.306 151.72C471.306 149.224 471.77 147.08 472.698 145.288C473.626 143.496 474.874 142.12 476.442 141.16C478.01 140.2 479.754 139.72 481.674 139.72C482.986 139.72 484.218 139.96 485.37 140.44C486.554 140.92 487.514 141.64 488.25 142.6C488.986 143.56 489.354 144.744 489.354 146.152C489.354 147.688 489.002 148.952 488.298 149.944C487.594 150.936 486.65 151.72 485.466 152.296C484.314 152.872 483.018 153.272 481.578 153.496C480.17 153.72 478.746 153.832 477.306 153.832H475.914C476.17 155.464 476.81 156.84 477.834 157.96C478.89 159.048 480.458 159.592 482.538 159.592C483.754 159.592 484.842 159.384 485.802 158.968C486.762 158.552 487.578 158.072 488.25 157.528L489.162 160.888C488.49 161.496 487.514 162.04 486.234 162.52C484.954 162.968 483.53 163.192 481.962 163.192ZM475.866 150.424H477.066C477.834 150.424 478.666 150.392 479.562 150.328C480.458 150.232 481.306 150.04 482.106 149.752C482.906 149.464 483.562 149.048 484.074 148.504C484.618 147.928 484.89 147.176 484.89 146.248C484.89 145.256 484.554 144.52 483.882 144.04C483.242 143.56 482.522 143.32 481.722 143.32C480.57 143.32 479.562 143.656 478.698 144.328C477.866 144.968 477.21 145.832 476.73 146.92C476.25 147.976 475.962 149.144 475.866 150.424ZM492.63 163L492.246 160.456L495.126 159.784V131.56H492.582L492.102 128.776L497.958 127.864L499.494 129.496V159.784L502.518 160.456V163H492.63ZM505.769 163L505.289 160.456L508.073 159.784V143.464L505.529 143.56L505.049 140.728L510.953 139.672L512.393 141.256V159.784L515.177 160.408V163H505.769ZM509.609 133.96C508.809 133.96 508.105 133.672 507.497 133.096C506.921 132.488 506.633 131.784 506.633 130.984C506.633 130.152 506.921 129.448 507.497 128.872C508.105 128.296 508.809 128.008 509.609 128.008C510.441 128.008 511.145 128.296 511.721 128.872C512.297 129.448 512.585 130.152 512.585 130.984C512.585 131.784 512.297 132.488 511.721 133.096C511.145 133.672 510.441 133.96 509.609 133.96ZM518.613 163L518.181 160.456L520.869 159.784V143.32L518.325 143.464L517.845 140.728L523.797 139.672L525.141 141.544C525.877 141.032 526.741 140.6 527.733 140.248C528.757 139.896 529.797 139.72 530.853 139.72C532.965 139.72 534.677 140.28 535.989 141.4C537.333 142.488 538.005 144.152 538.005 146.392V159.88L540.789 160.408L540.741 163H531.093L530.997 160.408L533.637 159.832V147.208C533.637 144.68 532.453 143.416 530.085 143.416C529.125 143.416 528.181 143.624 527.253 144.04C526.357 144.424 525.669 144.84 525.189 145.288V159.784L528.021 160.456V163H518.613ZM550.595 163.192C548.547 163.192 546.851 162.616 545.507 161.464C544.195 160.28 543.539 158.744 543.539 156.856C543.539 155.32 543.939 154.072 544.739 153.112C545.539 152.12 546.563 151.352 547.811 150.808C549.059 150.232 550.387 149.832 551.795 149.608C553.203 149.352 554.515 149.208 555.731 149.176V145.768C555.731 145.064 555.411 144.488 554.771 144.04C554.131 143.56 553.219 143.32 552.035 143.32C551.651 143.32 551.219 143.352 550.739 143.416C550.291 143.448 549.923 143.544 549.635 143.704L548.627 146.728L543.731 145.144C544.339 143.48 545.427 142.168 546.995 141.208C548.563 140.216 550.307 139.72 552.227 139.72C554.563 139.72 556.451 140.312 557.891 141.496C559.363 142.68 560.099 144.504 560.099 146.968V158.632C560.099 159.432 560.419 159.832 561.059 159.832C561.251 159.832 561.427 159.816 561.587 159.784C561.747 159.72 561.875 159.688 561.971 159.688L562.643 161.896C562.355 162.184 561.923 162.472 561.347 162.76C560.803 163.048 560.163 163.192 559.427 163.192C558.531 163.192 557.811 162.984 557.267 162.568C556.755 162.152 556.387 161.624 556.163 160.984C555.459 161.656 554.643 162.2 553.715 162.616C552.787 163 551.747 163.192 550.595 163.192ZM551.315 159.544C552.275 159.544 553.155 159.32 553.955 158.872C554.755 158.392 555.347 157.8 555.731 157.096V152.488C555.027 152.52 554.227 152.6 553.331 152.728C552.467 152.824 551.635 153.016 550.835 153.304C550.035 153.56 549.363 153.96 548.819 154.504C548.307 155.016 548.051 155.704 548.051 156.568C548.051 157.4 548.323 158.104 548.867 158.68C549.443 159.256 550.259 159.544 551.315 159.544Z" fill="white"/>
<path d="M272.476 103.519C271.606 104.389 270.714 105.207 269.528 105.699C269.318 106.119 269.077 106.31 269.077 106.827C269.077 107.207 269.812 107.095 270.012 106.935C270.346 106.668 270.783 106.566 271.115 106.234C271.444 105.905 271.894 105.72 272.234 105.398C273.059 104.619 273.912 104.045 275.057 104.045C276.394 104.045 277.438 103.685 278.666 103.26C280.148 102.747 281.573 101.706 282.992 101.038C283.5 100.799 284.088 100.888 284.646 100.888C285.278 100.888 285.872 100.737 286.484 100.737C289.223 100.737 291.318 98.7976 293.809 98.0311C297.156 97.0012 300.136 94.6226 303.64 94.122C305.691 93.829 307.738 93.3703 309.822 93.3703H313.397C314.858 93.3703 316.271 93.6172 317.723 93.671C320.329 93.7674 322.996 94.0149 325.575 94.3893C327.601 94.6833 329.531 95.2296 331.505 95.6589C332.554 95.8869 333.673 96.4252 334.629 96.9035C335.106 97.1418 335.59 97.5499 336.133 97.58C337.206 97.6397 338.334 98.2589 339.365 97.5717C340.029 97.1295 339.741 95.6448 339.741 94.9489C339.741 93.96 339.03 93.157 338.079 92.9192C336.7 92.5744 335.48 91.6046 334.036 91.4241C332.639 91.2495 331.328 90.5549 329.96 90.2129C328.42 89.8278 326.899 89.066 325.316 88.8681C323.918 88.6933 322.487 88.2584 321.089 88.2584C319.67 88.2584 318.27 88.5591 316.888 88.5591C315.343 88.5591 313.858 89.1429 312.311 89.1605C311.117 89.174 309.882 89.1661 308.702 89.3442C304.14 90.0328 299.435 90.024 294.937 91.1484C292.944 91.6466 290.794 91.8648 288.956 92.8858C288.035 93.3979 286.956 93.8129 285.974 94.1972C285.132 94.5266 283.986 94.9118 283.226 95.4C281.994 96.1923 280.311 96.5859 279.234 97.6636C278.111 98.7867 277.118 99.9165 275.834 100.879C275.242 101.323 274.653 101.805 274.072 102.241C273.597 102.597 272.891 103.105 272.476 103.519Z" fill="white"/>
<path d="M261.484 115.622C262.88 114.505 264.315 112.642 264.717 110.961C265.293 110.961 265.919 111.199 265.919 111.863C265.919 112.34 266.078 113.172 265.844 113.592C265.523 114.17 265.271 114.726 264.867 115.288C264.509 115.785 263.956 116.117 263.581 116.599C262.775 117.635 263.479 119.234 262.946 120.433C262.226 122.053 261.597 123.666 261.075 125.361C260.66 126.711 260.404 128.566 259.538 129.68C259.341 129.933 259.334 130.362 259.296 130.665C259.224 131.235 258.932 131.749 258.736 132.277C258.52 132.859 258.343 133.688 258.018 134.199C257.521 134.979 257.12 136.192 256.932 137.089C256.804 137.699 256.443 138.23 256.305 138.851C256.165 139.482 255.846 140.068 255.846 140.73V142.61C255.846 144.157 255.996 145.635 255.996 147.162C255.996 148.147 255.723 149.585 256.08 150.503C256.418 151.373 256.741 152.133 257.015 153.026C257.392 154.249 256.928 155.786 257.207 157.043C257.633 158.956 257.5 160.986 257.5 162.974C257.5 164.815 258.648 166.687 259.905 167.944C260.344 168.382 260.687 169 261.025 169.531C261.425 170.16 261.31 170.917 261.593 171.552C262.096 172.684 262.01 174.125 262.912 175.077C263.264 175.448 263.332 176.011 263.664 176.363C263.893 176.606 264.181 176.846 264.257 177.19C264.381 177.745 265.126 178.331 265.468 178.769C265.776 179.384 267.171 180.125 267.799 180.414C268.26 180.627 268.615 180.902 269.085 181.108C269.689 181.372 270.287 181.638 270.881 181.926C271.692 182.32 272.855 182.778 273.437 183.505C273.611 183.723 274.1 183.953 274.339 184.106C274.675 184.322 274.897 184.709 275.241 184.9C276.11 185.383 277.384 186.571 277.496 187.64C277.555 188.194 277.866 188.83 278.098 189.352C278.352 189.924 279.322 190.075 279.601 190.563C279.88 191.05 280.696 191.741 281.105 192.15C281.639 192.685 282.165 193.227 282.675 193.737C283.911 194.973 285.392 196.24 286.968 197.028C290.139 198.613 293.228 200.888 296.808 201.438C297.873 201.602 299.177 201.693 300.116 202.29C300.608 202.604 301.624 202.964 302.187 203.159C303.834 203.729 305.686 203.577 307.416 203.577C308.347 203.577 309.127 203.418 310.039 203.201C311.444 202.866 312.894 202.975 314.332 202.975C316.057 202.975 317.739 202.675 319.444 202.675C321.007 202.675 322.879 202.4 324.18 201.388C324.876 200.847 325.943 200.79 326.594 200.269C327.109 199.857 327.818 199.91 328.39 199.592C328.751 199.392 329.197 199.513 329.593 199.3C329.936 199.115 330.491 199.217 330.871 199.217C331.681 199.217 332.512 199.066 333.351 199.066C335.052 199.066 336.448 198.78 337.937 198.014C340.027 196.939 341.852 195.366 343.951 194.372C345.539 193.62 347.212 192.924 348.846 192.15C349.114 192.023 349.412 192.08 349.664 191.966C349.856 191.88 349.948 191.663 350.149 191.582C350.582 191.409 350.913 191.051 351.243 190.722C351.969 189.996 352.678 189.248 353.423 188.542C353.81 188.175 354.349 187.859 354.776 187.523C355.13 187.244 355.253 186.793 355.603 186.52C356.411 185.892 357.029 184.899 357.7 184.106C359.771 181.659 361.535 179.14 362.812 176.221C363.169 175.404 363.409 174.627 363.981 173.991C364.294 173.643 364.767 173.381 365 172.972C365.343 172.372 365.576 171.718 365.869 171.101C366.103 170.606 366.217 169.73 366.537 169.33C366.835 168.957 366.967 168.126 367.105 167.643C367.308 166.932 367.346 166.042 367.673 165.388C368.037 164.659 369.21 163.272 369.21 162.531C369.21 161.653 370.066 160.126 371.014 160.126C371.599 160.126 372.2 160.276 372.743 160.276C373.238 160.276 373.867 160.139 374.238 160.51C374.718 160.989 374.322 161.528 374.322 162.08C374.322 162.456 374.139 163.311 373.946 163.659C373.768 163.979 373.906 164.426 373.795 164.778C373.636 165.289 373.433 165.768 373.303 166.29L373.293 166.329C373.162 166.851 373.021 167.414 372.968 167.944C372.931 168.314 372.668 168.534 372.668 168.921C372.668 169.49 372.176 170.141 371.949 170.65C371.697 171.218 371.394 171.989 371.306 172.605C371.246 173.029 370.923 173.536 370.788 173.966C370.673 174.335 370.552 174.664 370.379 175.01C370.087 175.594 369.535 175.988 369.243 176.514C368.752 177.398 368.158 178.259 367.631 179.136C367.115 179.997 366.602 181.012 366.169 181.926C365.453 183.438 364.54 184.792 363.346 185.986C362.27 187.062 361.548 188.523 360.606 189.744C359.28 191.463 356.77 192.14 355.603 193.954C354.43 195.779 352.759 197.085 351.093 198.381C349.91 199.301 348.771 200.682 347.484 201.397C346.632 201.87 345.73 202.296 344.82 202.641C343.966 202.965 343.132 203.317 342.264 203.61C341.201 203.969 339.853 204.21 338.864 204.704C336.755 205.759 334.417 206.574 332.19 207.369C330.274 208.053 328.211 208.187 326.21 208.572C325.055 208.794 324.013 208.989 322.827 208.989C321.921 208.989 321.053 208.839 320.129 208.839C317.392 208.839 314.644 208.689 311.893 208.689C309.428 208.689 306.929 208.087 304.484 208.087C302.644 208.087 300.253 207.274 298.696 206.283C297.708 205.655 296.607 205.71 295.538 205.381C294.247 204.983 292.804 204.455 291.454 204.32C290.387 204.213 289.519 203.623 288.505 203.393C287.262 203.11 286.453 202.16 285.315 201.781C284.239 201.422 283.178 200.915 282.157 200.419C281.301 200.004 280.21 199.581 279.451 199.033C277.747 197.802 275.801 197.158 274.456 195.424C273.074 193.644 270.315 193.785 269.194 191.766C268.722 190.916 267.998 190.08 267.273 189.435C266.759 188.979 266.375 188.351 265.777 188.015C265.401 187.804 265.029 187.484 264.717 187.189C264.239 186.738 263.25 186.341 263.063 185.685C262.892 185.088 262.391 184.854 261.977 184.449C261.216 183.705 260.38 182.857 259.922 181.885C259.425 180.829 258.767 179.995 258.435 178.836C258.154 177.852 257.559 176.573 256.823 175.837C255.666 174.68 254.922 173.078 254.643 171.477C254.408 170.126 254.341 168.671 253.925 167.376C253.592 166.339 252.99 165.449 252.831 164.335C252.758 163.825 252.454 163.348 252.396 162.832C252.334 162.27 252.393 161.969 252.121 161.479C251.756 160.823 251.335 159.95 251.068 159.257C250.777 158.499 250.734 157.929 250.734 157.102C250.734 155.167 250.751 153.267 250.918 151.338C251.07 149.58 251.035 147.824 251.035 146.06C251.035 144.927 251.335 143.829 251.335 142.685C251.335 137.92 252.286 133.438 254.033 129.07C254.357 128.261 254.447 127.382 254.952 126.656C255.243 126.238 255.551 125.841 255.729 125.361C256.097 124.369 256.611 123.562 256.898 122.555C257.305 121.133 258.868 120.537 259.521 119.23C260.051 118.17 260.5 116.409 261.484 115.622Z" fill="white"/>
<path d="M347.409 102.241C346.376 102.112 347.045 100.232 347.259 99.6849C347.65 98.9022 348.772 99.9984 349.029 100.32C349.387 100.767 349.299 101.96 349.029 102.391C348.585 103.103 347.909 102.303 347.409 102.241Z" fill="white"/>
<path d="M360.94 116.641C360.11 116.226 360.64 114.968 360.64 114.269C361.449 114.269 362.242 113.846 362.452 114.795C362.631 115.597 362.925 115.752 362.736 116.599C362.504 117.643 361.447 116.894 360.94 116.641Z" fill="white"/>
<path d="M366.061 130.356C366.339 128.412 366.353 126.51 366.353 124.493C366.353 123.989 366.401 123.372 366.838 123.023C367.083 122.826 367.809 123.46 367.974 123.624C368.695 124.345 369.739 125.185 369.97 126.222C370.119 126.894 370.911 127.436 371.239 128.026C371.55 128.586 371.944 129.067 372.217 129.68C372.679 130.72 372.807 132.204 373.536 133.096C374.429 134.186 374.021 135.427 374.021 136.671C374.021 137.89 373.911 139.238 374.163 140.371C374.441 141.621 374.622 142.72 374.622 144.038C374.622 144.703 373.985 145.039 374.021 145.692C374.053 146.274 374.622 146.726 374.622 147.421C374.622 148.435 374.848 150.809 373.804 151.405C373.322 151.68 372.641 151.607 372.142 151.33C371.753 151.114 371.59 150.487 371.164 150.236C370.448 149.815 371.402 147.192 370.83 146.477C370.489 146.051 370.185 145.303 369.928 144.79C369.63 144.193 369.407 143.552 369.21 142.911C369.133 142.661 369.139 142.11 368.984 141.925C368.767 141.664 368.541 141.141 368.466 140.806C368.355 140.303 368.171 139.432 367.932 139.001C367.654 138.502 367.556 137.317 367.556 136.746C367.556 135.947 367.164 135.223 367.105 134.449C366.997 133.051 365.85 131.83 366.061 130.356Z" fill="white"/>
<rect x="312" y="34" width="2" height="34" rx="1" fill="white"/>
<rect x="312" width="2" height="20" rx="1" fill="white"/>
<rect x="312" y="24" width="2" height="4" rx="1" fill="white"/>
<rect x="330.395" y="46.5103" width="2" height="23.1789" rx="1" transform="rotate(8.42202 330.395 46.5103)" fill="white"/>
<rect x="333.417" y="26.0956" width="2" height="16.7994" rx="1" transform="rotate(8.42202 333.417 26.0956)" fill="white"/>
<rect x="364.69" y="57.8202" width="2" height="23.1789" rx="1" transform="rotate(30.2882 364.69 57.8202)" fill="white"/>
<rect x="375.099" y="40" width="2" height="16.7994" rx="1" transform="rotate(30.2882 375.099 40)" fill="white"/>
<rect x="392.304" y="81.8528" width="2" height="23.1789" rx="1" transform="rotate(52.1951 392.304 81.8528)" fill="white"/>
<rect x="408.609" y="69.2028" width="2" height="16.7994" rx="1" transform="rotate(52.1951 408.609 69.2028)" fill="white"/>
<rect x="413.86" y="110.902" width="2" height="23.1789" rx="1" transform="rotate(73.6351 413.86 110.902)" fill="white"/>
<rect x="433.661" y="105.087" width="2" height="16.7994" rx="1" transform="rotate(73.6351 433.661 105.087)" fill="white"/>
<rect x="293.739" y="46.117" width="2" height="23.1789" rx="1" transform="rotate(-8.83502 293.739 46.117)" fill="white"/>
<rect x="290.57" y="25.7247" width="2" height="16.7994" rx="1" transform="rotate(-8.83502 290.57 25.7247)" fill="white"/>
<rect x="258.89" y="58.5855" width="2" height="23.1789" rx="1" transform="rotate(-31.8488 258.89 58.5855)" fill="white"/>
<rect x="248" y="41.0554" width="2" height="16.7994" rx="1" transform="rotate(-31.8488 248 41.0554)" fill="white"/>
<rect x="231.793" y="83.1538" width="2" height="23.1789" rx="1" transform="rotate(-52.3857 231.793 83.1538)" fill="white"/>
<rect x="215.445" y="70.558" width="2" height="16.7994" rx="1" transform="rotate(-52.3857 215.445 70.558)" fill="white"/>
<rect x="213.424" y="112.656" width="2" height="23.1789" rx="1" transform="rotate(-69.5385 213.424 112.656)" fill="white"/>
<rect x="194.089" y="105.442" width="2" height="16.7994" rx="1" transform="rotate(-69.5385 194.089 105.442)" fill="white"/>
<rect x="351.017" y="41.1654" width="2" height="34" rx="1" transform="rotate(18.9076 351.017 41.1654)" fill="white"/>
<rect x="362.035" y="9" width="2" height="20" rx="1" transform="rotate(18.9076 362.035 9)" fill="white"/>
<rect x="354.258" y="31.705" width="2" height="4" rx="1" transform="rotate(18.9076 354.258 31.705)" fill="white"/>
<rect x="386.081" y="60.8539" width="2" height="34" rx="1" transform="rotate(40.4997 386.081 60.8539)" fill="white"/>
<rect x="408.162" y="35" width="2" height="20" rx="1" transform="rotate(40.4997 408.162 35)" fill="white"/>
<rect x="392.576" y="53.2498" width="2" height="4" rx="1" transform="rotate(40.4997 392.576 53.2498)" fill="white"/>
<rect x="413.098" y="90.5865" width="2" height="34" rx="1" transform="rotate(58.852 413.098 90.5865)" fill="white"/>
<rect x="442.197" y="73" width="2" height="20" rx="1" transform="rotate(58.852 442.197 73)" fill="white"/>
<rect x="421.657" y="85.414" width="2" height="4" rx="1" transform="rotate(58.852 421.657 85.414)" fill="white"/>
<rect x="272.286" y="40.7361" width="2" height="34" rx="1" transform="rotate(-19.3863 272.286 40.7361)" fill="white"/>
<rect x="261" y="8.66388" width="2" height="20" rx="1" transform="rotate(-19.3863 261 8.66388)" fill="white"/>
<rect x="268.966" y="31.3031" width="2" height="4" rx="1" transform="rotate(-19.3863 268.966 31.3031)" fill="white"/>
<rect x="238.197" y="61.0598" width="2" height="34" rx="1" transform="rotate(-40.7581 238.197 61.0598)" fill="white"/>
<rect x="216" y="35.3057" width="2" height="20" rx="1" transform="rotate(-40.7581 216 35.3057)" fill="white"/>
<rect x="231.669" y="53.4851" width="2" height="4" rx="1" transform="rotate(-40.7581 231.669 53.4851)" fill="white"/>
<rect x="211.927" y="92.5685" width="2" height="34" rx="1" transform="rotate(-58.2982 211.927 92.5685)" fill="white"/>
<rect x="183" y="74.7016" width="2" height="20" rx="1" transform="rotate(-58.2982 183 74.7016)" fill="white"/>
<rect x="203.419" y="87.3136" width="2" height="4" rx="1" transform="rotate(-58.2982 203.419 87.3136)" fill="white"/>
<rect width="2" height="34" rx="1" transform="matrix(1 0 0 -1 312 264.759)" fill="white"/>
<rect width="2" height="20" rx="1" transform="matrix(1 0 0 -1 312 298.759)" fill="white"/>
<rect width="2" height="4" rx="1" transform="matrix(1 0 0 -1 312 274.759)" fill="white"/>
<rect width="2" height="23.1789" rx="1" transform="matrix(0.989216 -0.146463 -0.146463 -0.989216 330.395 252.249)" fill="white"/>
<rect width="2" height="16.7994" rx="1" transform="matrix(0.989216 -0.146463 -0.146463 -0.989216 333.417 272.663)" fill="white"/>
<rect width="2" height="23.1789" rx="1" transform="matrix(0.863499 -0.50435 -0.50435 -0.863499 364.69 240.939)" fill="white"/>
<rect width="2" height="16.7994" rx="1" transform="matrix(0.863499 -0.50435 -0.50435 -0.863499 375.099 258.759)" fill="white"/>
<rect width="2" height="23.1789" rx="1" transform="matrix(0.612975 -0.790102 -0.790102 -0.612975 392.304 216.906)" fill="white"/>
<rect width="2" height="16.7994" rx="1" transform="matrix(0.612975 -0.790102 -0.790102 -0.612975 408.609 229.556)" fill="white"/>
<rect width="2" height="23.1789" rx="1" transform="matrix(0.281753 -0.959487 -0.959487 -0.281753 413.86 187.857)" fill="white"/>
<rect width="2" height="16.7994" rx="1" transform="matrix(0.281753 -0.959487 -0.959487 -0.281753 433.661 193.672)" fill="white"/>
<rect width="2" height="23.1789" rx="1" transform="matrix(0.988135 0.15359 0.15359 -0.988135 293.739 252.642)" fill="white"/>
<rect width="2" height="16.7994" rx="1" transform="matrix(0.988135 0.15359 0.15359 -0.988135 290.57 273.034)" fill="white"/>
<rect width="2" height="23.1789" rx="1" transform="matrix(0.849444 0.527679 0.527679 -0.849444 258.89 240.174)" fill="white"/>
<rect width="2" height="16.7994" rx="1" transform="matrix(0.849444 0.527679 0.527679 -0.849444 248 257.704)" fill="white"/>
<rect width="2" height="23.1789" rx="1" transform="matrix(0.610343 0.792137 0.792137 -0.610343 231.793 215.605)" fill="white"/>
<rect width="2" height="16.7994" rx="1" transform="matrix(0.610343 0.792137 0.792137 -0.610343 215.445 228.201)" fill="white"/>
<rect width="2" height="23.1789" rx="1" transform="matrix(0.349578 0.936907 0.936907 -0.349578 213.424 186.103)" fill="white"/>
<rect width="2" height="16.7994" rx="1" transform="matrix(0.349578 0.936907 0.936907 -0.349578 194.089 193.317)" fill="white"/>
<rect width="2" height="34" rx="1" transform="matrix(0.946043 -0.324042 -0.324042 -0.946043 351.017 257.594)" fill="white"/>
<rect width="2" height="20" rx="1" transform="matrix(0.946043 -0.324042 -0.324042 -0.946043 362.035 289.759)" fill="white"/>
<rect width="2" height="4" rx="1" transform="matrix(0.946043 -0.324042 -0.324042 -0.946043 354.258 267.054)" fill="white"/>
<rect width="2" height="34" rx="1" transform="matrix(0.760409 -0.649444 -0.649444 -0.760409 386.081 237.905)" fill="white"/>
<rect width="2" height="20" rx="1" transform="matrix(0.760409 -0.649444 -0.649444 -0.760409 408.162 263.759)" fill="white"/>
<rect width="2" height="4" rx="1" transform="matrix(0.760409 -0.649444 -0.649444 -0.760409 392.576 245.509)" fill="white"/>
<rect width="2" height="34" rx="1" transform="matrix(0.517251 -0.855834 -0.855834 -0.517251 413.098 208.173)" fill="white"/>
<rect width="2" height="20" rx="1" transform="matrix(0.517251 -0.855834 -0.855834 -0.517251 442.197 225.759)" fill="white"/>
<rect width="2" height="4" rx="1" transform="matrix(0.517251 -0.855834 -0.855834 -0.517251 421.657 213.345)" fill="white"/>
<rect width="2" height="34" rx="1" transform="matrix(0.943302 0.331936 0.331936 -0.943302 272.286 258.023)" fill="white"/>
<rect width="2" height="20" rx="1" transform="matrix(0.943302 0.331936 0.331936 -0.943302 261 290.095)" fill="white"/>
<rect width="2" height="4" rx="1" transform="matrix(0.943302 0.331936 0.331936 -0.943302 268.966 267.456)" fill="white"/>
<rect width="2" height="34" rx="1" transform="matrix(0.757473 0.652867 0.652867 -0.757473 238.197 237.699)" fill="white"/>
<rect width="2" height="20" rx="1" transform="matrix(0.757473 0.652867 0.652867 -0.757473 216 263.453)" fill="white"/>
<rect width="2" height="4" rx="1" transform="matrix(0.757473 0.652867 0.652867 -0.757473 231.669 245.274)" fill="white"/>
<rect width="2" height="34" rx="1" transform="matrix(0.525499 0.850794 0.850794 -0.525499 211.927 206.191)" fill="white"/>
<rect width="2" height="20" rx="1" transform="matrix(0.525499 0.850794 0.850794 -0.525499 183 224.057)" fill="white"/>
<rect width="2" height="4" rx="1" transform="matrix(0.525499 0.850794 0.850794 -0.525499 203.419 211.445)" fill="white"/>
</svg>
